<svg xmlns="http://www.w3.org/2000/svg" viewBox="0 0 1200 630" width="1200" height="630" role="img">
  <defs>
    <radialGradient id="bg" cx="50%" cy="42%" r="75%">
      <stop offset="0%" stop-color="#2c2150"/>
      <stop offset="55%" stop-color="#1d1638"/>
      <stop offset="100%" stop-color="#140f28"/>
    </radialGradient>
    <linearGradient id="gold" x1="0" y1="0" x2="1" y2="1">
      <stop offset="0%" stop-color="#e8cc8a"/>
      <stop offset="55%" stop-color="#d4af6a"/>
      <stop offset="100%" stop-color="#b98f4c"/>
    </linearGradient>
    <filter id="glow" x="-40%" y="-40%" width="180%" height="180%">
      <feGaussianBlur stdDeviation="6" result="b"/><feMerge><feMergeNode in="b"/><feMergeNode in="SourceGraphic"/></feMerge>
    </filter>
  </defs>
  <rect width="1200" height="630" fill="url(#bg)"/>
  <g fill="#f3ead6" opacity="0.5">
    <circle cx="140" cy="90" r="1.6"/><circle cx="1050" cy="120" r="2.1"/><circle cx="980" cy="70" r="1.3"/>
    <circle cx="240" cy="520" r="1.8"/><circle cx="1120" cy="470" r="1.5"/><circle cx="90" cy="360" r="1.4"/>
    <circle cx="1080" cy="300" r="1.2"/><circle cx="360" cy="120" r="1.3"/><circle cx="820" cy="560" r="1.6"/>
  </g>
  <g transform="translate(600,315)" stroke="url(#gold)" fill="none" filter="url(#glow)">
    <circle r="220" stroke-width="2.5" opacity="0.9"/>
    <circle r="170" stroke-width="1.4" opacity="0.6"/>
    <circle r="96" stroke-width="1.6" opacity="0.75"/>
    <g stroke-width="1.1" opacity="0.55">
      <line x1="-220" y1="0" x2="220" y2="0"/><line x1="0" y1="-220" x2="0" y2="220"/>
      <line x1="-190.5" y1="-110" x2="190.5" y2="110"/><line x1="-110" y1="-190.5" x2="110" y2="190.5"/>
      <line x1="-190.5" y1="110" x2="190.5" y2="-110"/><line x1="-110" y1="190.5" x2="110" y2="-190.5"/>
    </g>
  </g>
  <g transform="translate(600,315)" fill="url(#gold)" filter="url(#glow)">
    <circle cx="0" cy="-170" r="6"/><circle cx="147" cy="85" r="7.5"/><circle cx="-147" cy="85" r="5"/>
    <circle cx="96" cy="-55" r="4.5"/><circle cx="-60" cy="150" r="5.5"/>
    <circle cx="0" cy="0" r="4" fill="#f3ead6"/>
  </g>
  <circle cx="600" cy="315" r="300" fill="none" stroke="#000" stroke-width="0" />
  <rect width="1200" height="630" fill="#0e0a1e" opacity="0.12"/>
</svg>
