<svg xmlns="http://www.w3.org/2000/svg" viewBox="0 0 1200 630" width="1200" height="630" role="img">
  <defs>
    <radialGradient id="bg" cx="50%" cy="42%" r="75%"><stop offset="0%" stop-color="#2c2150"/><stop offset="55%" stop-color="#1d1638"/><stop offset="100%" stop-color="#140f28"/></radialGradient>
    <linearGradient id="gold" x1="0" y1="0" x2="1" y2="1"><stop offset="0%" stop-color="#e8cc8a"/><stop offset="55%" stop-color="#d4af6a"/><stop offset="100%" stop-color="#b98f4c"/></linearGradient>
    <linearGradient id="rose" x1="0" y1="0" x2="1" y2="1"><stop offset="0%" stop-color="#c8a2d6"/><stop offset="100%" stop-color="#8f6bb0"/></linearGradient>
    <filter id="glow" x="-40%" y="-40%" width="180%" height="180%"><feGaussianBlur stdDeviation="5" result="b"/><feMerge><feMergeNode in="b"/><feMergeNode in="SourceGraphic"/></feMerge></filter>
  </defs>
  <rect width="1200" height="630" fill="url(#bg)"/>
  <g fill="#f3ead6" opacity="0.5"><circle cx="150" cy="110" r="1.6"/><circle cx="1050" cy="120" r="2"/><circle cx="240" cy="520" r="1.7"/><circle cx="1110" cy="470" r="1.4"/><circle cx="120" cy="330" r="1.3"/><circle cx="900" cy="560" r="1.5"/></g>
  <g fill="none" filter="url(#glow)">
    <path d="M430,240 q-70,0 -70,60 q0,50 55,58 l-2,44 l46,-46 q80,-6 80,-56 q0,-60 -70,-60 Z" stroke="url(#gold)" stroke-width="2.5" opacity="0.9"/>
    <path d="M770,300 q70,0 70,60 q0,50 -55,58 l2,44 l-46,-46 q-80,-6 -80,-56 q0,-60 70,-60 Z" transform="translate(0,-40)" stroke="url(#rose)" stroke-width="2.5" opacity="0.9"/>
  </g>
  <g stroke="#f3ead6" stroke-width="1" opacity="0.35" filter="url(#glow)"><path d="M520,300 Q600,250 690,290" stroke-dasharray="2 7"/></g>
  <g fill="url(#gold)" filter="url(#glow)"><circle cx="420" cy="300" r="4"/><circle cx="455" cy="300" r="4"/><circle cx="490" cy="300" r="4"/></g>
  <g fill="url(#rose)" filter="url(#glow)"><circle cx="720" cy="280" r="4"/><circle cx="755" cy="280" r="4"/><circle cx="790" cy="280" r="4"/></g>
  <g fill="url(#gold)" filter="url(#glow)"><path d="M600,150 l7,20 l20,7 l-20,7 l-7,20 l-7,-20 l-20,-7 l20,-7 Z" opacity="0.85"/></g>
  <rect width="1200" height="630" fill="#0e0a1e" opacity="0.12"/>
</svg>
