<svg xmlns="http://www.w3.org/2000/svg" viewBox="0 0 1200 630" width="1200" height="630" role="img">
  <defs>
    <radialGradient id="bg" cx="50%" cy="42%" r="75%"><stop offset="0%" stop-color="#2c2150"/><stop offset="55%" stop-color="#1d1638"/><stop offset="100%" stop-color="#140f28"/></radialGradient>
    <linearGradient id="gold" x1="0" y1="0" x2="1" y2="1"><stop offset="0%" stop-color="#e8cc8a"/><stop offset="55%" stop-color="#d4af6a"/><stop offset="100%" stop-color="#b98f4c"/></linearGradient>
    <radialGradient id="flame" cx="50%" cy="35%" r="65%"><stop offset="0%" stop-color="#fff4d6"/><stop offset="55%" stop-color="#e8cc8a"/><stop offset="100%" stop-color="#d4915a"/></radialGradient>
    <filter id="glow" x="-60%" y="-60%" width="220%" height="220%"><feGaussianBlur stdDeviation="6" result="b"/><feMerge><feMergeNode in="b"/><feMergeNode in="SourceGraphic"/></feMerge></filter>
  </defs>
  <rect width="1200" height="630" fill="url(#bg)"/>
  <g fill="#f3ead6" opacity="0.55"><circle cx="150" cy="110" r="1.7"/><circle cx="1050" cy="120" r="2.1"/><circle cx="300" cy="520" r="1.6"/><circle cx="1120" cy="480" r="1.5"/><circle cx="140" cy="340" r="1.4"/><circle cx="380" cy="120" r="1.3"/><circle cx="900" cy="120" r="1.4"/></g>
  <g filter="url(#glow)">
    <path d="M900,200 a70,70 0 1,0 30,132 a56,56 0 1,1 -30,-132 Z" fill="url(#gold)" opacity="0.9"/>
    <circle cx="1000" cy="230" r="3" fill="#f3ead6"/><circle cx="960" cy="300" r="2.4" fill="#f3ead6"/>
  </g>
  <g transform="translate(560,320)" filter="url(#glow)">
    <ellipse cx="0" cy="150" rx="120" ry="20" fill="#000" opacity="0.25"/>
    <rect x="-46" y="-30" width="92" height="180" rx="10" fill="url(#gold)" opacity="0.25"/>
    <rect x="-46" y="-30" width="92" height="180" rx="10" fill="none" stroke="url(#gold)" stroke-width="2"/>
    <rect x="-52" y="-42" width="104" height="18" rx="6" fill="url(#gold)"/>
    <line x1="0" y1="-42" x2="0" y2="-86" stroke="url(#gold)" stroke-width="3"/>
    <path d="M0,-150 C34,-116 30,-92 0,-84 C-30,-92 -34,-116 0,-150 Z" fill="url(#flame)"/>
    <path d="M0,-138 C16,-118 14,-104 0,-98 C-14,-104 -16,-118 0,-138 Z" fill="#fff8e6" opacity="0.9"/>
  </g>
  <g transform="translate(560,180)" fill="url(#gold)" opacity="0.85" filter="url(#glow)"><path d="M0,0 l6,16 l16,6 l-16,6 l-6,16 l-6,-16 l-16,-6 l16,-6 Z"/></g>
  <rect width="1200" height="630" fill="#0e0a1e" opacity="0.12"/>
</svg>
