<svg xmlns="http://www.w3.org/2000/svg" viewBox="0 0 1200 630" width="1200" height="630" role="img">
  <defs>
    <radialGradient id="bg" cx="50%" cy="42%" r="75%"><stop offset="0%" stop-color="#2c2150"/><stop offset="55%" stop-color="#1d1638"/><stop offset="100%" stop-color="#140f28"/></radialGradient>
    <linearGradient id="gold" x1="0" y1="0" x2="1" y2="1"><stop offset="0%" stop-color="#e8cc8a"/><stop offset="55%" stop-color="#d4af6a"/><stop offset="100%" stop-color="#b98f4c"/></linearGradient>
    <filter id="glow" x="-40%" y="-40%" width="180%" height="180%"><feGaussianBlur stdDeviation="5" result="b"/><feMerge><feMergeNode in="b"/><feMergeNode in="SourceGraphic"/></feMerge></filter>
  </defs>
  <rect width="1200" height="630" fill="url(#bg)"/>
  <g fill="#f3ead6" opacity="0.5"><circle cx="150" cy="110" r="1.6"/><circle cx="1050" cy="120" r="2"/><circle cx="240" cy="520" r="1.7"/><circle cx="1110" cy="470" r="1.4"/><circle cx="120" cy="330" r="1.3"/></g>
  <g transform="translate(600,315)" fill="none" filter="url(#glow)">
    <circle r="70" fill="url(#gold)" opacity="0.9"/>
    <circle r="70" fill="none" stroke="#f3ead6" stroke-width="1" opacity="0.4"/>
    <ellipse rx="300" ry="150" stroke="url(#gold)" stroke-width="1.4" opacity="0.4"/>
    <path d="M300,0 C300,120 180,120 130,40 C100,-10 170,-70 240,-30 C300,4 300,0 300,0" stroke="url(#gold)" stroke-width="2.6" opacity="0.9"/>
  </g>
  <g transform="translate(600,315)" fill="url(#gold)" filter="url(#glow)">
    <circle cx="300" cy="0" r="9"/><circle cx="130" cy="40" r="6"/><circle cx="240" cy="-30" r="5"/>
    <path d="M182,58 l-22,-6 l14,18 Z" fill="#f3ead6"/>
  </g>
  <g transform="translate(600,315)" fill="#f3ead6" opacity="0.85"><circle cx="-24" cy="-16" r="9"/><circle cx="18" cy="12" r="6"/></g>
  <rect width="1200" height="630" fill="#0e0a1e" opacity="0.12"/>
</svg>
