<svg xmlns="http://www.w3.org/2000/svg" viewBox="0 0 1200 630" width="1200" height="630" role="img">
  <defs>
    <radialGradient id="bg" cx="50%" cy="42%" r="75%"><stop offset="0%" stop-color="#2c2150"/><stop offset="55%" stop-color="#1d1638"/><stop offset="100%" stop-color="#140f28"/></radialGradient>
    <linearGradient id="gold" x1="0" y1="0" x2="1" y2="1"><stop offset="0%" stop-color="#e8cc8a"/><stop offset="55%" stop-color="#d4af6a"/><stop offset="100%" stop-color="#b98f4c"/></linearGradient>
    <filter id="glow" x="-60%" y="-60%" width="220%" height="220%"><feGaussianBlur stdDeviation="5" result="b"/><feMerge><feMergeNode in="b"/><feMergeNode in="SourceGraphic"/></feMerge></filter>
  </defs>
  <rect width="1200" height="630" fill="url(#bg)"/>
  <g fill="#f3ead6" opacity="0.55"><circle cx="150" cy="110" r="1.7"/><circle cx="1050" cy="120" r="2.1"/><circle cx="300" cy="520" r="1.6"/><circle cx="1090" cy="470" r="1.5"/><circle cx="150" cy="330" r="1.4"/><circle cx="920" cy="130" r="1.4"/></g>
  <g transform="translate(600,330)" filter="url(#glow)">
    <ellipse cx="0" cy="140" rx="150" ry="24" fill="#000" opacity="0.25"/>
    <path d="M-140,-70 h240 a12,12 0 0,1 12,12 v18 a95,120 0 0,1 -132,120 a95,120 0 0,1 -132,-120 v-18 a12,12 0 0,1 12,-12 Z" fill="url(#gold)" opacity="0.22"/>
    <path d="M-140,-70 h240 a12,12 0 0,1 12,12 v18 a95,120 0 0,1 -132,120 a95,120 0 0,1 -132,-120 v-18 a12,12 0 0,1 12,-12 Z" fill="none" stroke="url(#gold)" stroke-width="3"/>
    <path d="M118,-50 a70,60 0 0,1 0,110" fill="none" stroke="url(#gold)" stroke-width="3"/>
    <ellipse cx="-20" cy="-52" rx="118" ry="20" fill="none" stroke="url(#gold)" stroke-width="2.5"/>
    <path d="M-70,-30 q30,26 0,52 q-30,26 0,52" fill="none" stroke="url(#gold)" stroke-width="2.4" opacity="0.85"/>
    <path d="M20,-30 q30,26 0,52 q-30,26 0,52" fill="none" stroke="url(#gold)" stroke-width="2.4" opacity="0.85"/>
    <path d="M-25,-120 q22,-26 0,-52" fill="none" stroke="#e8cc8a" stroke-width="2.6" opacity="0.6"/>
    <path d="M35,-120 q22,-26 0,-52" fill="none" stroke="#e8cc8a" stroke-width="2.6" opacity="0.6"/>
  </g>
  <g transform="translate(600,150)" fill="url(#gold)" opacity="0.85" filter="url(#glow)"><path d="M0,0 l6,16 l16,6 l-16,6 l-6,16 l-6,-16 l-16,-6 l16,-6 Z"/></g>
  <rect width="1200" height="630" fill="#0e0a1e" opacity="0.12"/>
</svg>
