<svg xmlns="http://www.w3.org/2000/svg" viewBox="0 0 1200 630" width="1200" height="630" role="img">
  <defs>
    <radialGradient id="bg" cx="50%" cy="42%" r="75%"><stop offset="0%" stop-color="#2c2150"/><stop offset="55%" stop-color="#1d1638"/><stop offset="100%" stop-color="#140f28"/></radialGradient>
    <linearGradient id="gold" x1="0" y1="0" x2="1" y2="1"><stop offset="0%" stop-color="#e8cc8a"/><stop offset="55%" stop-color="#d4af6a"/><stop offset="100%" stop-color="#b98f4c"/></linearGradient>
    <filter id="glow" x="-40%" y="-40%" width="180%" height="180%"><feGaussianBlur stdDeviation="5" result="b"/><feMerge><feMergeNode in="b"/><feMergeNode in="SourceGraphic"/></feMerge></filter>
  </defs>
  <rect width="1200" height="630" fill="url(#bg)"/>
  <g fill="#f3ead6" opacity="0.5"><circle cx="150" cy="110" r="1.6"/><circle cx="1050" cy="120" r="2"/><circle cx="240" cy="520" r="1.7"/><circle cx="1110" cy="470" r="1.4"/><circle cx="120" cy="330" r="1.3"/><circle cx="960" cy="560" r="1.5"/></g>
  <g transform="translate(600,315)" fill="none" stroke="url(#gold)" filter="url(#glow)">
    <path d="M0,0 C0,-70 -70,-70 -70,0 C-70,113 113,113 113,0 C113,-183 -183,-183 -183,0 C-183,296 296,296 296,0" stroke-width="2.4" opacity="0.85"/>
    <rect x="-70" y="-70" width="70" height="70" stroke-width="1" opacity="0.35"/>
    <rect x="-70" y="0" width="113" height="113" stroke-width="1" opacity="0.3"/>
    <rect x="-183" y="-183" width="183" height="183" stroke-width="1" opacity="0.25"/>
  </g>
  <g transform="translate(600,315)" fill="url(#gold)" filter="url(#glow)">
    <circle cx="0" cy="0" r="6" fill="#f3ead6"/>
    <circle cx="-70" cy="0" r="5"/><circle cx="113" cy="0" r="6"/><circle cx="-183" cy="0" r="5.5"/><circle cx="296" cy="0" r="4.5"/>
    <circle cx="-35" cy="-35" r="4"/><circle cx="43" cy="56" r="4.5"/><circle cx="-92" cy="-92" r="4"/>
  </g>
  <rect width="1200" height="630" fill="#0e0a1e" opacity="0.12"/>
</svg>
