<svg xmlns="http://www.w3.org/2000/svg" viewBox="0 0 1200 630" width="1200" height="630" role="img">
  <defs>
    <radialGradient id="bg" cx="50%" cy="42%" r="75%"><stop offset="0%" stop-color="#2c2150"/><stop offset="55%" stop-color="#1d1638"/><stop offset="100%" stop-color="#140f28"/></radialGradient>
    <linearGradient id="gold" x1="0" y1="0" x2="1" y2="1"><stop offset="0%" stop-color="#e8cc8a"/><stop offset="55%" stop-color="#d4af6a"/><stop offset="100%" stop-color="#b98f4c"/></linearGradient>
    <filter id="glow" x="-60%" y="-60%" width="220%" height="220%"><feGaussianBlur stdDeviation="5" result="b"/><feMerge><feMergeNode in="b"/><feMergeNode in="SourceGraphic"/></feMerge></filter>
  </defs>
  <rect width="1200" height="630" fill="url(#bg)"/>
  <g fill="#f3ead6" opacity="0.55"><circle cx="160" cy="120" r="1.7"/><circle cx="1040" cy="130" r="2"/><circle cx="300" cy="510" r="1.6"/><circle cx="1080" cy="470" r="1.5"/><circle cx="170" cy="350" r="1.4"/><circle cx="900" cy="140" r="1.4"/></g>
  <g transform="translate(600,320)" filter="url(#glow)">
    <ellipse cx="0" cy="150" rx="140" ry="22" fill="#000" opacity="0.25"/>
    <g stroke="url(#gold)" stroke-width="2.5" fill="url(#gold)">
      <ellipse cx="0" cy="70" rx="120" ry="34" fill-opacity="0.25"/>
      <ellipse cx="0" cy="20" rx="120" ry="34" fill-opacity="0.35"/>
      <ellipse cx="0" cy="-30" rx="120" ry="34" fill-opacity="0.45"/>
    </g>
    <circle cx="0" cy="-110" r="62" fill="url(#gold)" opacity="0.95"/>
    <circle cx="0" cy="-110" r="62" fill="none" stroke="#fff8e6" stroke-width="2" opacity="0.5"/>
    <path d="M0,-142 v64 M-18,-130 h30 a12,12 0 0,1 0,24 h-30 M-14,-106 h34" fill="none" stroke="#1d1638" stroke-width="5" stroke-linecap="round" opacity="0.8"/>
  </g>
  <g transform="translate(600,140)" fill="url(#gold)" opacity="0.85" filter="url(#glow)"><path d="M0,0 l6,16 l16,6 l-16,6 l-6,16 l-6,-16 l-16,-6 l16,-6 Z"/></g>
  <rect width="1200" height="630" fill="#0e0a1e" opacity="0.12"/>
</svg>
