<svg xmlns="http://www.w3.org/2000/svg" viewBox="0 0 1200 630" width="1200" height="630" role="img">
  <defs>
    <radialGradient id="bg" cx="50%" cy="42%" r="75%"><stop offset="0%" stop-color="#2c2150"/><stop offset="55%" stop-color="#1d1638"/><stop offset="100%" stop-color="#140f28"/></radialGradient>
    <linearGradient id="gold" x1="0" y1="0" x2="1" y2="1"><stop offset="0%" stop-color="#e8cc8a"/><stop offset="55%" stop-color="#d4af6a"/><stop offset="100%" stop-color="#b98f4c"/></linearGradient>
    <filter id="glow" x="-60%" y="-60%" width="220%" height="220%"><feGaussianBlur stdDeviation="6" result="b"/><feMerge><feMergeNode in="b"/><feMergeNode in="SourceGraphic"/></feMerge></filter>
  </defs>
  <rect width="1200" height="630" fill="url(#bg)"/>
  <g fill="#f3ead6"><circle cx="180" cy="120" r="2" opacity="0.7"/><circle cx="1040" cy="150" r="2.4" opacity="0.8"/><circle cx="320" cy="500" r="1.7" opacity="0.6"/><circle cx="980" cy="470" r="1.6" opacity="0.6"/><circle cx="200" cy="360" r="1.5" opacity="0.6"/><circle cx="760" cy="120" r="1.6" opacity="0.7"/><circle cx="470" cy="150" r="1.4" opacity="0.6"/><circle cx="1120" cy="330" r="1.5" opacity="0.6"/></g>
  <g transform="translate(560,315)" filter="url(#glow)">
    <path d="M70,-150 A150,150 0 1,0 70,150 A118,118 0 1,1 70,-150 Z" fill="url(#gold)" opacity="0.92"/>
  </g>
  <g stroke="url(#gold)" stroke-width="2.2" fill="none" opacity="0.7" filter="url(#glow)">
    <path d="M700,250 q60,20 120,4"/><path d="M700,320 q70,26 150,6"/><path d="M700,388 q60,22 118,2"/>
  </g>
  <g transform="translate(870,250)" fill="url(#gold)" opacity="0.9" filter="url(#glow)"><path d="M0,0 l7,18 l18,7 l-18,7 l-7,18 l-7,-18 l-18,-7 l18,-7 Z"/></g>
  <g transform="translate(430,180)" fill="url(#gold)" opacity="0.7" filter="url(#glow)"><path d="M0,0 l5,13 l13,5 l-13,5 l-5,13 l-5,-13 l-13,-5 l13,-5 Z"/></g>
  <rect width="1200" height="630" fill="#0e0a1e" opacity="0.12"/>
</svg>
