<svg xmlns="http://www.w3.org/2000/svg" viewBox="0 0 1200 630" width="1200" height="630" role="img">
  <defs>
    <radialGradient id="bg" cx="50%" cy="42%" r="75%"><stop offset="0%" stop-color="#2c2150"/><stop offset="55%" stop-color="#1d1638"/><stop offset="100%" stop-color="#140f28"/></radialGradient>
    <linearGradient id="gold" x1="0" y1="0" x2="1" y2="1"><stop offset="0%" stop-color="#e8cc8a"/><stop offset="55%" stop-color="#d4af6a"/><stop offset="100%" stop-color="#b98f4c"/></linearGradient>
    <linearGradient id="card" x1="0" y1="0" x2="0" y2="1"><stop offset="0%" stop-color="#241a44"/><stop offset="100%" stop-color="#180f30"/></linearGradient>
    <filter id="glow" x="-40%" y="-40%" width="180%" height="180%"><feGaussianBlur stdDeviation="5" result="b"/><feMerge><feMergeNode in="b"/><feMergeNode in="SourceGraphic"/></feMerge></filter>
  </defs>
  <rect width="1200" height="630" fill="url(#bg)"/>
  <g fill="#f3ead6" opacity="0.5"><circle cx="150" cy="110" r="1.6"/><circle cx="1050" cy="120" r="2"/><circle cx="240" cy="520" r="1.7"/><circle cx="1110" cy="470" r="1.4"/><circle cx="120" cy="330" r="1.3"/></g>
  <g filter="url(#glow)">
    <g transform="translate(600,330) rotate(-18)"><rect x="-95" y="-150" width="190" height="300" rx="14" fill="url(#card)" stroke="url(#gold)" stroke-width="2.5"/><path d="M0,-70 L18,-20 L70,-20 L28,12 L44,64 L0,32 L-44,64 L-28,12 L-70,-20 L-18,-20 Z" fill="url(#gold)" opacity="0.9"/></g>
    <g transform="translate(600,325)"><rect x="-100" y="-158" width="200" height="316" rx="15" fill="url(#card)" stroke="url(#gold)" stroke-width="3"/>
      <circle cx="0" cy="-40" r="34" fill="none" stroke="url(#gold)" stroke-width="2.5"/>
      <path d="M0,60 L14,90 L0,120 L-14,90 Z" fill="url(#gold)"/>
      <circle cx="0" cy="-40" r="8" fill="#f3ead6"/></g>
    <g transform="translate(600,330) rotate(18)"><rect x="-95" y="-150" width="190" height="300" rx="14" fill="url(#card)" stroke="url(#gold)" stroke-width="2.5"/><g stroke="url(#gold)" stroke-width="2" fill="none" opacity="0.9"><circle cx="0" cy="-30" r="26"/><path d="M-30,50 Q0,10 30,50"/></g></g>
  </g>
  <rect width="1200" height="630" fill="#0e0a1e" opacity="0.12"/>
</svg>
