<svg xmlns="http://www.w3.org/2000/svg" viewBox="0 0 1200 630" width="1200" height="630" role="img">
  <defs>
    <radialGradient id="bg" cx="50%" cy="42%" r="75%"><stop offset="0%" stop-color="#2c2150"/><stop offset="55%" stop-color="#1d1638"/><stop offset="100%" stop-color="#140f28"/></radialGradient>
    <linearGradient id="gold" x1="0" y1="0" x2="1" y2="1"><stop offset="0%" stop-color="#e8cc8a"/><stop offset="55%" stop-color="#d4af6a"/><stop offset="100%" stop-color="#b98f4c"/></linearGradient>
    <filter id="glow" x="-60%" y="-60%" width="220%" height="220%"><feGaussianBlur stdDeviation="5" result="b"/><feMerge><feMergeNode in="b"/><feMergeNode in="SourceGraphic"/></feMerge></filter>
  </defs>
  <rect width="1200" height="630" fill="url(#bg)"/>
  <g fill="#f3ead6" opacity="0.55"><circle cx="160" cy="120" r="1.7"/><circle cx="1040" cy="130" r="2"/><circle cx="300" cy="510" r="1.6"/><circle cx="1080" cy="470" r="1.5"/><circle cx="170" cy="350" r="1.4"/><circle cx="900" cy="140" r="1.4"/></g>
  <g transform="translate(600,315)" fill="none" stroke="url(#gold)" filter="url(#glow)">
    <circle cx="0" cy="0" r="150" stroke-width="2.5" opacity="0.85"/>
    <circle cx="0" cy="0" r="120" stroke-width="1.6" opacity="0.55"/>
    <g stroke-width="1.4" opacity="0.5">
      <line x1="0" y1="-150" x2="0" y2="150"/><line x1="-150" y1="0" x2="150" y2="0"/>
      <line x1="-106" y1="-106" x2="106" y2="106"/><line x1="106" y1="-106" x2="-106" y2="106"/>
    </g>
    <path d="M0,-120 L27,-37 L114,-37 L44,15 L70,99 L0,48 L-70,99 L-44,15 L-114,-37 L-27,-37 Z" fill="url(#gold)" stroke="none" opacity="0.9"/>
  </g>
  <g fill="url(#gold)" opacity="0.8" filter="url(#glow)">
    <path d="M600,120 l6,16 l16,6 l-16,6 l-6,16 l-6,-16 l-16,-6 l16,-6 Z"/>
    <path d="M980,300 l5,13 l13,5 l-13,5 l-5,13 l-5,-13 l-13,-5 l13,-5 Z"/>
    <path d="M215,300 l5,13 l13,5 l-13,5 l-5,13 l-5,-13 l-13,-5 l13,-5 Z"/>
  </g>
  <rect width="1200" height="630" fill="#0e0a1e" opacity="0.12"/>
</svg>
